<?xml version="1.0" encoding="UTF-8"?><svg id="a" xmlns="http://www.w3.org/2000/svg" xmlns:xlink="http://www.w3.org/1999/xlink" viewBox="0 0 150 150"><defs><style>.f{fill:url(#c);}.g{fill:url(#b);}.h{fill:url(#d);}.i{fill:url(#e);}.j{fill:none;}</style><linearGradient id="b" x1="76.48" y1="38.56" x2="130.91" y2="38.56" gradientTransform="matrix(1, 0, 0, 1, 0, 0)" gradientUnits="userSpaceOnUse"><stop offset=".1" stop-color="#7abe4b"/><stop offset="1" stop-color="#abd06d"/></linearGradient><linearGradient id="c" x1="14.69" y1="71.97" x2="83.46" y2="71.97" gradientTransform="matrix(1, 0, 0, 1, 0, 0)" gradientUnits="userSpaceOnUse"><stop offset="0" stop-color="#499e50"/><stop offset=".91" stop-color="#78bd4b"/></linearGradient><linearGradient id="d" x1="62.28" y1="58.84" x2="72.51" y2="58.84" gradientTransform="matrix(1, 0, 0, 1, 0, 0)" gradientUnits="userSpaceOnUse"><stop offset="0" stop-color="#6cb44d"/><stop offset="1" stop-color="#2c7921"/></linearGradient><linearGradient id="e" x1="83.46" y1="58.84" x2="93.7" y2="58.84" gradientTransform="matrix(1, 0, 0, 1, 0, 0)" gradientUnits="userSpaceOnUse"><stop offset="0" stop-color="#2c7921"/><stop offset="1" stop-color="#8cc458"/></linearGradient></defs><path class="j" d="M0,0H150V150H0V0Z"/><path class="g" d="M130.91,12.77v13.07c0,21.23-17.27,38.51-38.51,38.51h-10.31v-11h10.31c15.17,0,27.51-12.34,27.51-27.51v-2.06h-15.47c-8.13,0-15.55,3.12-21.12,8.22-1.86-3.2-4.17-6.11-6.84-8.64,7.46-6.58,17.25-10.58,27.95-10.58h26.47Z"/><path class="f" d="M44.95,12.77H14.69v9.28c0,23.32,18.97,42.29,42.29,42.29h15.53l-.06,66.83h11V51.28c0-21.23-17.27-38.51-38.51-38.51Zm12.03,40.57c-16.68,0-30.35-13.11-31.24-29.57h19.21c15.99-.06,28.58,13.71,27.56,29.57h-15.53Z"/><rect class="h" x="62.28" y="53.34" width="10.24" height="11"/><rect class="i" x="83.46" y="53.34" width="10.24" height="11"/></svg>